<svg width="123" height="53" viewBox="0 0 123 53" fill="none" xmlns="http://www.w3.org/2000/svg">
<path d="M30.0938 41.875L0.03125 29.3438V23L30.0938 10.4375V18.6875L11.5312 26.1562L30.0938 33.5938V41.875ZM57.0625 0.4375L42.0625 52.9688H32.5L47.5938 0.4375H57.0625ZM82.7812 1.40625L90.3125 52H76.8438L76.1875 42.9062H71.4688L70.6875 52H57.0625L63.75 1.40625H82.7812ZM75.8125 33.9375C75.1458 28.2083 74.4792 21.1354 73.8125 12.7188C72.4792 22.3854 71.6458 29.4583 71.3125 33.9375H75.8125ZM91.9688 10.4375L122.031 22.9375V29.3125L91.9688 41.875V33.625L110.531 26.1562L91.9688 18.7188V10.4375Z" fill="#FF8303"/>
</svg>
